<?xml version="1.0" encoding="UTF-8"?>
<svg id="Layer_1" xmlns="http://www.w3.org/2000/svg" viewBox="0 0 500 688">
  <g>
    <path d="M32.35,389.99c.37-1.1,1.47-2.02,2.75-2.02h14.88c1.1-.18,2.39.92,2.57,2.02l33.06,135.54c.37,1.28-.37,2.2-1.65,2.2h-15.98c-1.29,0-2.39-.92-2.76-2.2l-4.59-19.28c-.18-1.1-1.47-2.2-2.75-2.02h-30.12c-1.29,0-2.57.92-2.76,2.02l-4.59,19.28c-.18,1.28-1.47,2.2-2.75,2.2H1.86c-1.29,0-2.02-.92-1.84-2.2l32.32-135.54ZM30.7,482.18c-.18,1.29.55,2.2,1.65,2.2h20.75c1.28,0,2.02-1.1,1.65-2.2l-11.57-47.57c-.37-1.29-.73-1.29-1.1,0l-11.39,47.57Z" fill="#fff"/>
    <path d="M151.01,389.99c.37-1.1,1.47-2.02,2.75-2.02h14.88c1.1-.18,2.39.92,2.57,2.02l33.06,135.54c.37,1.28-.37,2.2-1.65,2.2h-15.98c-1.29,0-2.39-.92-2.76-2.2l-4.59-19.28c-.18-1.1-1.47-2.2-2.75-2.02h-30.12c-1.29,0-2.57.92-2.75,2.02l-4.59,19.28c-.18,1.28-1.47,2.2-2.75,2.2h-15.8c-1.29,0-2.02-.92-1.84-2.2l32.32-135.54ZM149.36,482.18c-.18,1.29.55,2.2,1.65,2.2h20.75c1.29,0,2.02-1.1,1.65-2.2l-11.57-47.57c-.37-1.29-.73-1.29-1.1,0l-11.39,47.57Z" fill="#fff"/>
    <path d="M254.61,388.33c1.1,0,2.2.92,2.2,2.2v115.52c0,1.28.92,2.2,2.2,2.2h36.18c1.29,0,2.2,1.1,2.2,2.2v15.06c0,1.28-.92,2.2-2.2,2.2h-55.65c-1.29,0-2.2-.92-2.2-2.2v-134.99c0-1.28.92-2.2,2.2-2.2h15.06Z" fill="#fff"/>
    <path d="M351.04,389.62c.92-.92,2.57-1.65,3.67-1.65h24.79c1.28,0,2.94.74,3.86,1.65l15.24,15.25c.73.92,1.47,2.57,1.47,3.67v19.1c0,1.28-.92,2.2-2.2,2.2h-15.06c-1.1,0-2.2-.92-2.2-2.2v-11.02c0-1.1-.55-2.94-1.47-3.67l-3.86-4.04c-.92-.74-2.57-1.47-3.86-1.47h-8.63c-1.1,0-2.75.74-3.67,1.47l-3.86,4.04c-.92.73-1.65,2.57-1.65,3.67v19.47c0,1.1.73,2.94,1.47,3.67l4.04,3.86c.74.92,2.39,1.65,3.67,1.65h16.71c1.1,0,2.94.74,3.67,1.47l15.43,15.25c.73.92,1.47,2.57,1.47,3.86v41.32c0,1.1-.74,2.94-1.47,3.68l-15.24,15.43c-.92.73-2.57,1.47-3.86,1.47h-24.79c-1.1,0-2.75-.74-3.67-1.47l-15.24-15.43c-.92-.74-1.65-2.57-1.65-3.68v-23.51c0-1.28,1.1-2.2,2.2-2.2h15.06c1.29,0,2.2.92,2.2,2.2v15.43c0,1.28.73,2.94,1.65,3.86l3.86,3.86c.92.73,2.57,1.47,3.67,1.47h8.63c1.29,0,2.94-.74,3.86-1.47l3.86-3.86c.92-.92,1.47-2.57,1.47-3.86v-25.16c0-1.28-.55-2.94-1.47-3.86l-4.04-3.86c-.73-.92-2.39-1.47-3.67-1.47h-16.71c-1.1,0-2.94-.73-3.67-1.65l-15.43-15.24c-.73-.92-1.47-2.57-1.47-3.86v-35.45c0-1.1.73-2.76,1.65-3.67l15.24-15.25Z" fill="#fff"/>
    <path d="M439.02,406.33c-1.29,0-2.2-1.1-2.2-2.2v-14.14c0-1.1.92-2.02,2.2-2.02h58.77c1.1,0,2.2.92,2.2,2.02v14.14c0,1.1-1.1,2.2-2.2,2.2h-18c-1.29,0-2.2.92-2.2,2.2v116.99c0,1.28-.92,2.2-2.2,2.2h-13.96c-1.29,0-2.2-.92-2.2-2.2v-116.99c0-1.28-1.1-2.2-2.2-2.2h-18Z" fill="#fff"/>
  </g>
  <g>
    <path d="M416.54,174.88v3.41c0,.2-.14.52-.3.66l-2.72,2.75c-.14.14-.45.26-.66.26h-4.43c-.2,0-.52-.12-.66-.26l-2.75-2.75c-.14-.14-.26-.46-.26-.66v-17.62c0-.23.12-.52.26-.66l2.75-2.76c.14-.13.46-.25.66-.25h4.43c.2,0,.52.12.66.25l2.72,2.76c.16.14.3.42.3.66v3.41c0,.2-.17.39-.4.39h-2.69c-.19,0-.39-.19-.39-.39v-1.96c0-.23-.14-.54-.27-.69l-.71-.69c-.13-.14-.43-.27-.66-.27h-1.54c-.23,0-.53.13-.65.27l-.73.69c-.14.15-.27.45-.27.69v14.72c0,.23.13.53.27.65l.73.73c.12.14.42.27.65.27h1.54c.22,0,.53-.13.66-.27l.71-.73c.14-.12.27-.42.27-.65v-1.96c0-.23.2-.39.39-.39h2.69c.23,0,.4.16.4.39Z" fill="#fff"/>
    <path d="M385.67,157.02h10.5c.2,0,.39.15.39.35v2.52c0,.2-.2.4-.39.4h-3.22c-.22,0-.39.15-.39.38v20.89c0,.23-.16.39-.38.39h-2.5c-.22,0-.39-.16-.39-.39v-20.89c0-.23-.2-.38-.38-.38h-3.23c-.22,0-.38-.21-.38-.4v-2.52c0-.2.16-.35.38-.35Z" fill="#fff"/>
    <path d="M366.2,157.02h10.49c.2,0,.39.15.39.35v2.52c0,.2-.19.4-.39.4h-3.21c-.24,0-.39.15-.39.38v20.89c0,.23-.17.39-.4.39h-2.48c-.23,0-.4-.16-.4-.39v-20.89c0-.23-.19-.38-.39-.38h-3.21c-.23,0-.4-.21-.4-.4v-2.52c0-.2.17-.35.4-.35Z" fill="#fff"/>
    <path d="M115.37,156.65c.2,0,.43.16.47.37l2.62,14.69c.03.19.1.19.13,0l2.36-14.69c.02-.21.06-.37.09-.37h3.51s.11.16.14.37l2.36,14.69c.04.19.09.19.13,0l2.63-14.69c.04-.21.22-.37.45-.37h2.72c.23,0,.37.16.33.37l-4.3,24.19c-.03.22-.22.39-.45.39h-3.02c-.22,0-.42-.17-.45-.39l-2.2-13.61c-.04-.24-.11-.24-.13,0l-2.17,13.61c-.03.22-.26.39-.46.39h-3.02c-.22,0-.42-.17-.45-.39l-4.36-24.19c-.03-.21.11-.37.32-.37h2.75Z" fill="#fff"/>
    <g>
      <path d="M471.4,344.48c-21.8-28.91-48.7-52.92-79.94-71.4-1.05-.63-2.11-1.23-3.18-1.85-3.67-2.1-7.42-4.14-11.2-6.08-2.37-1.38-4.88-2.83-7.5-4.32-24.71-14.21-62.06-35.67-60.86-56.59.01-.28,0-.55-.04-.81l8.88-172.59.04-.79v-.21c.01-1.57-.29-3.05-.87-4.46-5.54-13.57-36.31-20.63-66.73-20.63s-61.19,7.07-66.73,20.63c-.58,1.41-.88,2.89-.88,4.46v.21s.05.79.05.79l8.88,172.59c-.05.27-.05.54-.04.81,1.19,20.92-36.15,42.39-60.87,56.59-2.62,1.49-5.13,2.94-7.5,4.32-3.88,1.99-7.77,4.12-11.56,6.3-.94.54-1.88,1.09-2.82,1.63-31.24,18.48-58.13,42.5-79.94,71.4-1.48,1.96-1.09,4.76.87,6.24.81.6,1.75.89,2.69.89,1.35,0,2.69-.6,3.57-1.77,21.09-27.97,47.12-51.2,77.36-69.08.55-.32,1.09-.65,1.65-.95h270.54c.56.31,1.1.63,1.65.95,30.24,17.88,56.27,41.11,77.36,69.08.87,1.17,2.21,1.77,3.56,1.77.93,0,1.88-.29,2.69-.89,1.96-1.48,2.35-4.28.87-6.24ZM209.1,270.88h-5.38v-.26s-3.46-66.89-3.46-66.89l-5.79-112.62h111.08l-5.8,112.62-3.44,66.92v.22h-87.2ZM206.74,19.47c11.49-3.76,26.86-5.82,43.27-5.82s31.78,2.06,43.27,5.82c5.73,1.87,9.75,3.95,12.25,5.89h-111.03c2.49-1.94,6.52-4.02,12.25-5.89ZM191.78,37.83l-.2-3.55h116.87l-.18,3.51-.29,5.6-2.01,38.81h-111.67l-2.21-38.77-.32-5.61ZM130.82,270.88c1.32-.77,2.67-1.54,4.04-2.33,19.96-11.46,45.13-25.93,57.61-42.76l2.32,45.08h-63.97ZM305.22,270.88l2.32-45.07c12.48,16.83,37.65,31.29,57.6,42.75,1.37.79,2.72,1.56,4.04,2.33h-63.96Z" fill="#fff"/>
      <path d="M220.11,96.69l3.29,68.23h-10.4l-3.29-68.23h-9.08l8.18,164.38c7.87-9.13,23.2-15.18,41.19-15.18s33.33,6.06,41.21,15.2l8.44-164.4h-79.54ZM270.23,152.58c2.24,0,4.07,1.82,4.07,4.07s-1.83,4.07-4.07,4.07-4.07-1.82-4.07-4.07,1.83-4.07,4.07-4.07ZM257.01,109.73c1.74,0,3.13,1.4,3.13,3.13s-1.39,3.13-3.13,3.13-3.14-1.4-3.14-3.13,1.41-3.13,3.14-3.13ZM214.35,188.47l-.89-18.53h10.4l.9,18.53h-10.4ZM245.22,238.13c-2.65,0-4.79-2.14-4.79-4.78s2.14-4.79,4.79-4.79,4.79,2.15,4.79,4.79-2.14,4.78-4.79,4.78ZM250.15,138.86c0-1.74,1.4-3.14,3.14-3.14s3.14,1.4,3.14,3.14-1.4,3.13-3.14,3.13-3.14-1.4-3.14-3.13ZM257.01,213.39c-1.73,0-3.14-1.4-3.14-3.13s1.41-3.13,3.14-3.13,3.13,1.39,3.13,3.13-1.39,3.13-3.13,3.13ZM257.01,184.72c-2.06,0-3.72-1.67-3.72-3.72s1.66-3.72,3.72-3.72,3.72,1.68,3.72,3.72-1.66,3.72-3.72,3.72ZM270.23,198.04c-2.64,0-4.78-2.14-4.78-4.79s2.14-4.78,4.78-4.78,4.79,2.14,4.79,4.78-2.15,4.79-4.79,4.79Z" fill="#fff"/>
      <path d="M250.01,251.15c-16.79,0-31.29,5.81-37.85,14.16h75.71c-6.58-8.34-21.08-14.16-37.86-14.16Z" fill="#fff"/>
      <polygon points="182.16 25.37 182.14 25.37 182.36 29.28 182.16 25.37" fill="#fff"/>
    </g>
    <path d="M104.75,178.52v2.69c0,.22-.17.39-.39.39h-11.61c-.22,0-.39-.17-.39-.39v-2.72c0-.23.07-.56.17-.76l8.09-17.19c.1-.19,0-.35-.19-.35h-7.75c-.22,0-.39-.2-.39-.39v-2.7c0-.22.17-.39.39-.39h11.68c.22,0,.39.17.39.39v2.43c0,.23-.07.56-.17.76l-8.26,17.47c-.1.19,0,.35.22.35h7.81c.22,0,.39.2.39.39Z" fill="#fff"/>
    <path d="M84.09,157.02l-4.68,24.19c-.04.22-.24.39-.46.39h-2.7c-.22,0-.43-.17-.45-.39l-4.72-24.19c-.04-.21.09-.37.32-.37h2.76c.2,0,.42.16.46.37l2.88,14.94c.07.2.13.2.17,0l2.89-14.94c.04-.21.26-.37.45-.37h2.76c.23,0,.36.16.32.37Z" fill="#fff"/>
  </g>
  <g>
    <path d="M266.97,623.65h4.07c.14,0,.26.13.26.26v1.69c0,.15-.12.25-.26.25h-6.27c-.15,0-.25-.1-.25-.25v-15.2c0-.15.1-.26.25-.26h1.7c.13,0,.26.11.26.26v13c0,.15.1.25.24.25Z" fill="#fff"/>
    <path d="M268.07,644.51c.15,0,.25-.11.25-.26v-2.59c0-.15-.06-.17-.15-.04l-1.79,2.67c-.08.12-.02.21.1.21h1.59ZM264.31,643.43l3.73-5.53c.09-.1.25-.2.39-.2h1.86c.12,0,.24.12.24.25v6.31c0,.15.1.26.25.26h.62c.12,0,.24.12.24.24v1.72c0,.12-.12.25-.24.25h-.62c-.15,0-.25.1-.25.24v6.23c0,.15-.12.25-.24.25h-1.72c-.12,0-.26-.1-.26-.25v-6.23c0-.15-.1-.24-.25-.24h-3.66c-.15,0-.26-.13-.26-.25v-2.59c0-.13.07-.33.15-.46Z" fill="#fff"/>
    <path d="M249.52,619.78c.04.13.08.13.1,0l1.81-9.43c.02-.12.17-.22.29-.22h1.74c.15,0,.22.1.21.22l-2.96,15.27c-.02.15-.15.25-.29.25h-1.69c-.15,0-.27-.1-.29-.25l-2.97-15.27c-.03-.12.05-.22.2-.22h1.74c.13,0,.27.1.29.22l1.83,9.43Z" fill="#fff"/>
    <path d="M248.21,640.5c-.1.1-.17.28-.17.42v1.25c0,.14-.12.25-.26.25h-1.7c-.14,0-.25-.11-.25-.25v-2.15c0-.15.08-.33.17-.43l1.74-1.71c.1-.12.29-.17.41-.17h2.79c.15,0,.33.05.44.17l1.7,1.71c.11.1.19.29.19.43v3.82c0,.12-.08.34-.17.41l-.64.64c-.12.08-.12.25,0,.35l.64.63c.09.1.17.29.17.43v4.83c0,.13-.08.3-.19.42l-1.7,1.72c-.11.09-.3.17-.44.17h-2.79c-.12,0-.31-.08-.41-.17l-1.74-1.72c-.09-.12-.17-.29-.17-.42v-2.15c0-.14.11-.26.25-.26h1.7c.14,0,.26.12.26.26v1.24c0,.12.08.33.17.41l.43.44c.1.1.29.19.43.19h.96c.15,0,.33-.09.44-.19l.43-.44c.1-.1.18-.29.18-.41v-3c0-.14-.09-.33-.18-.43l-.43-.43c-.11-.11-.29-.19-.41-.19h-1.43c-.14,0-.25-.1-.25-.25v-1.7c0-.14.11-.26.25-.26h1.43c.12,0,.3-.08.41-.17l.43-.44c.1-.09.18-.27.18-.42v-2.01c0-.14-.09-.32-.18-.42l-.43-.44c-.11-.1-.29-.16-.44-.16h-.96c-.14,0-.33.06-.43.16l-.43.44Z" fill="#fff"/>
    <path d="M232.49,653.45h-3.51c-.15,0-.26-.1-.26-.24v-1.69c0-.15.11-.25.26-.25h1.29c.14,0,.25-.14.25-.26v-8.93c0-.14-.05-.16-.13-.04l-.59,1.07c-.1.12-.23.16-.36.09l-1.47-.85c-.12-.07-.15-.21-.08-.33l2.34-4.1c.08-.13.16-.22.2-.22h2.06c.12,0,.25.12.25.24v13.08c0,.12.1.26.25.26h1.34c.15,0,.26.1.26.25v1.69c0,.15-.11.24-.26.24h-1.84Z" fill="#fff"/>
    <path d="M232.56,623.04c.11-.09.19-.29.19-.41v-9.28c0-.14-.08-.33-.19-.43l-.43-.43c-.1-.1-.29-.19-.44-.19h-.96c-.12,0-.33.09-.41.19l-.46.43c-.08.1-.16.29-.16.43v9.28c0,.12.09.32.16.41l.46.46c.08.08.29.15.41.15h.96c.15,0,.34-.08.44-.15l.43-.46ZM229.83,610.14h2.78c.14,0,.33.06.41.16l1.74,1.72c.09.11.17.29.17.43v11.09c0,.12-.09.33-.17.41l-1.74,1.74c-.08.09-.27.16-.41.16h-2.78c-.14,0-.34-.08-.43-.16l-1.74-1.74c-.08-.08-.16-.29-.16-.41v-11.09c0-.15.08-.32.16-.43l1.74-1.72c.09-.1.29-.16.43-.16Z" fill="#fff"/>
    <g>
      <path d="M249.57,683.26c-28.38,0-51.47-23.1-51.47-51.48s23.09-51.47,51.47-51.47,51.49,23.09,51.49,51.47-23.09,51.48-51.49,51.48ZM249.57,584.19c-26.24,0-47.59,21.35-47.59,47.59s21.35,47.6,47.59,47.6,47.61-21.35,47.61-47.6-21.35-47.59-47.61-47.59Z" fill="#fff"/>
      <path d="M151.57,635.68h-47.39c-2.16,0-3.9-1.74-3.9-3.9s1.75-3.9,3.9-3.9h47.39c2.15,0,3.9,1.74,3.9,3.9s-1.75,3.9-3.9,3.9Z" fill="#fff"/>
      <path d="M395.82,635.68h-47.39c-2.16,0-3.9-1.74-3.9-3.9s1.74-3.9,3.9-3.9h47.39c2.16,0,3.9,1.74,3.9,3.9s-1.74,3.9-3.9,3.9Z" fill="#fff"/>
    </g>
  </g>
</svg>
